<?xml version="1.0" encoding="UTF-8"?><svg id="Layer_2" xmlns="http://www.w3.org/2000/svg" viewBox="0 0 301.41 100.99"><defs><style>.cls-1{fill:#010101;stroke-width:0px;}</style></defs><g id="TEXT"><path class="cls-1" d="M0,46.61l1.41.97,8.59,5.95,4.21,2.91,1.6,1.1,2.43,1.69,3.64,2.52,8.33,5.76,3.55,2.46,1.26.87,9.59,6.63,1.03.72.29.2,9.9,6.85H15.81v-14.4H1.41s0,28.8,0,28.8h72c0-5.22.01-10.44.02-15.65-2.34-1.4-44.38-30.97-73.43-51.44v14.06Z"/><path class="cls-1" d="M72.72,52.06l-8.59-5.95-4.21-2.91-1.6-1.1-2.43-1.69-3.64-2.52-8.33-5.76-3.55-2.46-1.26-.87-9.59-6.63-1.03-.72-.29-.2-9.9-6.85h40.02v14.4h14.4V0H.72c0,5.22-.01,10.44-.02,15.65,2.3,1.37,43.04,30.03,72.02,50.44v-14.04Z"/><path class="cls-1" d="M142.28,32.55h-44.55V0h-12.29v100.94h12.29v-36.12l44.55.47v35.65h12.29V0h-12.29v32.55ZM142.26,54.24h-44.51v-13.55h44.51v13.55Z"/><polygon class="cls-1" points="214.32 88.09 175.21 88.31 175.21 0 162.92 0 163.41 100.8 226.34 100.99 226.61 0 214.32 0 214.32 88.09"/><polygon class="cls-1" points="274.25 49.31 301.16 0 285.2 0 266.48 34.17 247.84 0 231.79 0 258.62 49.31 231.62 100.94 247.59 100.94 266.56 64.31 285.37 100.94 301.41 100.94 274.25 49.31"/></g></svg>