<?xml version="1.0" encoding="UTF-8"?><svg id="Layer_2" xmlns="http://www.w3.org/2000/svg" viewBox="0 0 317 317"><defs><style>.cls-1{fill:#010101;stroke:#010101;stroke-miterlimit:10;stroke-width:.96px;}</style></defs><g id="LOGO"><path class="cls-1" d="M41.37,132.62l.14-.53,12.35-12.35.35-.35,13.04-13.04.2.2.14-.53,12.36-12.36.34-.34,13.04-13.04.34-.34,12.36-12.36.34-.34,13.04-13.04.34-.33,12.36-12.36.33-.35,1.12-1.12c-3.6-7.51-3.59-16.32,0-23.83,1.23-2.59,2.9-5.01,4.99-7.2l.85-.85c2.18-2.09,4.61-3.76,7.2-4.99,2.05-.99,4.21-1.69,6.41-2.14,5.82-1.19,11.97-.47,17.43,2.15h0c.33.15.63.3.94.46h0c2.41,1.28,4.65,2.91,6.68,4.93,2.29,2.29,4.09,4.87,5.39,7.64h0c.91,1.92,1.59,3.9,2.03,5.95l.02.02c.37,1.6.55,3.21.62,4.84v.02c.18,4.45-.72,8.92-2.67,13.01-1.15,2.42-2.65,4.66-4.55,6.73l-.02.02c-.26.3-.54.6-.83.89-.28.28-.57.55-.87.81h0s0,.02-.02.03h0c-2.05,1.91-4.32,3.42-6.73,4.56-4.09,1.96-8.55,2.85-13,2.66h-.02c-1.65-.05-3.25-.24-4.84-.62h0s-.04,0-.04,0c-2.04-.44-4.02-1.1-5.92-2.03h0s-10.31,10.3-10.31,10.3h0s-3.85,3.86-3.85,3.86c0,0,25.91,150.11,27.22,155.31-4.73,4.72-9.46,9.44-14.19,14.15l-65.18-65.18,26.07-26.07,13.04,13.04-13.04,13.04,36.23,36.23-2.76-15.16-.08-.44-.28-1.58-2.68-14.68-.35-1.93-.99-5.44-2.33-12.75-1.01-5.58-.67-3.73-.45-2.44-1.18-6.45-2.39-13.16-.92-5.03-1.31-7.23-.79-4.37-.99-5.42-.22-1.18-3.32-18.2-.48-2.67h0s0-.02,0-.02l-66.3,66.3h0c.92,1.91,1.58,3.89,2.03,5.93v.02s0,.02,0,.02c.38,1.59.58,3.2.63,4.85v.02c.19,4.44-.71,8.91-2.66,13-1.14,2.41-2.66,4.69-4.56,6.73t-.02.02c-.26.3-.53.59-.82.88s-.59.57-.89.83h0s0,.02-.02.03c-2.05,1.89-4.31,3.4-6.72,4.54h0c-4.09,1.96-8.55,2.85-13,2.67h-.02c-1.61-.07-3.23-.26-4.83-.62,0,0-.02,0-.03,0h0c-2.05-.44-4.03-1.12-5.94-2.04h0c-2.77-1.31-5.35-3.11-7.64-5.4-2.02-2.02-3.66-4.27-4.92-6.67t-.02-.02c-.16-.31-.31-.62-.45-.94h0c-2.62-5.47-3.33-11.6-2.15-17.42,0,0,0-.02,0-.02.44-2.2,1.14-4.35,2.13-6.4h0c1.23-2.6,2.9-5.02,4.99-7.21l.85-.85c2.18-2.09,4.61-3.76,7.2-4.99,7.51-3.58,16.32-3.59,23.83,0l1.33-.91Z"/><path class="cls-1" d="M275.63,184.38l-.14.53-12.35,12.35-.35.35-13.04,13.04-.2-.2-.14.53-12.36,12.36-.34.34-13.04,13.04-.34.34-12.36,12.36-.34.34-13.04,13.04-.34.33-12.36,12.36-.33.35-1.12,1.12c3.6,7.51,3.59,16.32,0,23.83-1.23,2.59-2.9,5.01-4.99,7.2l-.85.85c-2.18,2.09-4.61,3.76-7.2,4.99-2.05.99-4.21,1.69-6.41,2.14-5.82,1.19-11.97.47-17.43-2.15h0c-.33-.15-.63-.3-.94-.46h0c-2.41-1.28-4.65-2.91-6.68-4.93-2.29-2.29-4.09-4.87-5.39-7.64h0c-.91-1.92-1.59-3.9-2.03-5.95l-.02-.02c-.37-1.6-.55-3.21-.62-4.84v-.02c-.18-4.45.72-8.92,2.67-13.01,1.15-2.42,2.65-4.66,4.55-6.73l.02-.02c.26-.3.54-.6.83-.89.28-.28.57-.55.87-.81h0s0-.02.02-.03h0c2.05-1.91,4.32-3.42,6.73-4.56,4.09-1.96,8.55-2.85,13-2.66h.02c1.65.05,3.25.24,4.84.62h0s.04,0,.04,0c2.04.44,4.02,1.1,5.92,2.03h0s10.31-10.3,10.31-10.3h0s3.85-3.86,3.85-3.86c0,0-25.91-150.11-27.22-155.31,4.73-4.72,9.46-9.44,14.19-14.15l65.18,65.18-26.07,26.07-13.04-13.04,13.04-13.04-36.23-36.23,2.76,15.16.08.44.28,1.58,2.68,14.68.35,1.93.99,5.44,2.33,12.75,1.01,5.58.67,3.73.45,2.44,1.18,6.45,2.39,13.16.92,5.03,1.31,7.23.79,4.37.99,5.42.22,1.18,3.32,18.2.48,2.67h0s0,.02,0,.02l66.3-66.3h0c-.92-1.91-1.58-3.89-2.03-5.93v-.02s0-.02,0-.02c-.38-1.59-.58-3.2-.63-4.85v-.02c-.19-4.44.71-8.91,2.66-13,1.14-2.41,2.66-4.69,4.56-6.73t.02-.02c.26-.3.53-.59.82-.88s.59-.57.89-.83h0s0-.02.02-.03c2.05-1.89,4.31-3.4,6.72-4.54h0c4.09-1.96,8.55-2.85,13-2.67h.02c1.61.07,3.23.26,4.83.62,0,0,.02,0,.03,0h0c2.05.44,4.03,1.12,5.94,2.04h0c2.77,1.31,5.35,3.11,7.64,5.4,2.02,2.02,3.66,4.27,4.92,6.67t.02.02c.16.31.31.62.45.94h0c2.62,5.47,3.33,11.6,2.15,17.42,0,0,0,.02,0,.02-.44,2.2-1.14,4.35-2.13,6.4h0c-1.23,2.6-2.9,5.02-4.99,7.21l-.85.85c-2.18,2.09-4.61,3.76-7.2,4.99-7.51,3.58-16.32,3.59-23.83,0l-1.33.91Z"/></g></svg>